<svg id="Artwork" xmlns="http://www.w3.org/2000/svg" viewBox="0 0 500 500">
  <title>artwork</title>
  <path id="shape1" d="M154.73,36.51c76.34-56,157-51.84,278.72,42.23,56.42,43.6,19.69,134.25,50.16,211,23.09,58.22-11.33,169.94-86.79,166.11-103.39-5.29-229.55,86.49-310,19.82C.78,404.11-11,265.81,38.42,138.89,58.75,86.75,119.87,62,154.73,36.51Z" transform="translate(0 0)"/>
  <path id="shape2" d="M119.84,49.87c101.4-57,267.74-78.36,347,7.94,46,50.22-5.52,137.65-8.11,206.47-1.95,52.85,30.73,121-5.63,158.57C360.74,518.14,161.5,526.23,60.12,441.13c-59-49.53-49.63-155-34.75-231.59C37.22,148.48,66.6,79.73,119.84,49.87Z" transform="translate(0 0)"/>
  <path id="shape3" d="M61.06,55.91C136.49-26.35,308-12,391.6,61.06c89.62,78.42,137.94,267.16,58.86,356.41C351.8,529,25.66,535.93,10.65,386.19.87,288.66,64.49,268.07,72.5,204.42,78.71,155.17,27.87,92.07,61.06,55.91Z" transform="translate(0 0)"/>
  <path id="shape4" d="M23.57,129.82C62.49,49.44,172.3,3.34,259.58,11.48c93.76,8.76,193.17,82.16,227.12,172.07,27.46,72.57,12.24,177.08-44.27,229.06-89.09,82.06-262.14,106.58-358,33C.54,381.23-23,225.94,23.57,129.82Z" transform="translate(0 0)"/>
  <path id="shape5" d="M29.49,404.75C-14.88,291.37-17.23,113.88,79,41.72,182.54-35.95,385.26-.19,458.55,107.77c53.94,79.51,72.51,300-52.73,285.54S238,512.92,145.73,499C96.87,491.62,47.87,451.75,29.49,404.75Z" transform="translate(0 0)"/>
  <path id="shape6" d="M262.9,397.06c-62.84,22-118.63,115.6-179.47,88.28-79.68-35.67-94.5-167.86-76.69-255C22.63,152.45,86.17,77.69,158.94,49.43c88.86-34.28,280.8-84.78,282.23,39.92s92.72,185.91,45.09,258.5C443.71,412.76,334.89,371.78,262.9,397.06Z" transform="translate(0 0)"/>
  <path id="shape7" d="M465.27,393.83c-98.66,73.23-272.61,84.91-365.34,4.09C13.4,322.48-47.31,113.89,49.33,52.7c55.39-35,103.3,81.63,159.76,114.8C300.22,221,454.21,202.89,495.84,301.69,508.38,331.47,490.93,374.8,465.27,393.83Z" transform="translate(0 0)"/>
  <path id="shape8" d="M164.45,6.43c75.73-20.46,165.9,9.92,227,62.79,53.84,46.66,92.69,125.05,94.23,200,1.4,60.74-22.86,132.39-69.55,166.13C318.43,505.56,150.71,532,64.33,445.68c-73.2-73.22-54.76-224-17-324.2C67.28,68.5,113.41,20,164.45,6.43Z" transform="translate(0 0)"/>
  <path id="shape9" d="M442.64,51.67c45.57,44.35,58.8,118.11,49.48,191.87s-41.36,147.68-86.63,192.34C330,510.41,172.82,523.66,91.31,456.05,3.6,383.21-25.06,205.82,42.28,113,82.43,57.52,158.08,18.44,236,5S393.76,4.12,442.64,51.67Z" transform="translate(0 0)"/>
  <path id="shape10" d="M144.86,50c81.89-57.11,216.2-78.51,280.25,7.83,37.12,50.24-4.46,137.68-6.53,206.52C417,317.2,443.27,385.23,414,422.91c-74.57,95.27-235.48,103.26-317.37,18.27-47.64-49.59-40-155.13-28-231.64C78.11,148.53,101.85,79.85,144.86,50Z" transform="translate(0 0)"/>
  <path id="shape11" d="M425,219.12C461.77,297.34,525.57,402,478,473.8c-44.26,66.77-150.75-33.16-229.62-32.68s-193.71,103.43-237,35.93c-48.23-75,194.24-136.31,233.92-216.34C286.35,177.55,26.27,0,249.88,0,464.27,0,385.14,134,425,219.12Z" transform="translate(0 0)"/>
  <path id="shape12" d="M498.35,169C486,270.47,360.42,319.44,277.47,376.48c-79.63,54.78-56.21,119.27-110.57,123.31C105.52,504.2,45.33,439.21,23.63,380.14-15.53,273.24-7.44,113.46,79.88,42.33c91.33-74.6,248.74-39.55,350.06,20.15C465.93,83.68,503.41,126.84,498.35,169Z" transform="translate(0 0)"/>
  <path id="shape13" d="M277.34.13c60.6,4.76-28.45,123.37,14.9,184.27s219.09,63.77,191.87,117.21c-27,53-131.72-31.42-180.34,2.87-56.67,39.91-2.24,188-71.8,195.32-63.51,6.88-22.06-162.29-64.85-228.81C124.33,204.7-2.7,241.29,14.66,180.39,30.7,124,129,145.52,176.75,111.46,217.64,82.44,226.82-3.83,277.34.13Z" transform="translate(0 0)"/>
  <path id="shape14" d="M284,.73C493.71-4.5,548.82,370.24,439,414.52,327.83,450.25,343,93.55,231.17,127c-112.14,33.53,68.88,285.47-24.06,358-42,32.84-119.36,7.4-155.22-32.25C-8.32,386.08,1.74,243.86,19.24,182.47,35.41,125.58,75.36,82.34,120.39,51,167.48,18.19,227.33-4.42,284,.73Z" transform="translate(0 0)"/>
  <path id="shape15" d="M.41,312.42c-4.61-54.06,30-126.31,77-162.56,73-56.33,183.32-76.92,270.41-48.25,63.78,21,121.39,81.09,140.75,146.77C500.41,288.8,514.72,346.14,465,372.8c-68.59,36.88-148.53-42.19-228.83-30.95C176.71,350.06,130,418.9,74,410.56,21.36,402.86,3.73,351.2.41,312.42Z" transform="translate(0 0)"/>
  <path id="shape16" d="M1.48,222.64c18.25-80,126.89-104.29,199.34-140.77C258.53,52.81,334.1-19.3,384.61,21.18c47.26,37.93-38.87,126-15.72,182.3,21.84,52.94,124.65,53.18,130.52,110.17,7.8,74.56-63.46,185.23-137.11,176.76-75-8.72-28.68-172.7-96-207.59C203,250,120.93,353.33,56.53,322.74,22.34,306.53-7,259.85,1.48,222.64Z" transform="translate(0 0)"/>
  <circle id="avatar" cx="250" cy="250" r="180"/>
</svg>
